<svg width="18" height="17" viewBox="0 0 18 17" fill="none" xmlns="http://www.w3.org/2000/svg">
<path fill-rule="evenodd" clip-rule="evenodd" d="M12.8645 10.3774H12.0515L11.7633 10.1226C12.7719 9.04717 13.3791 7.65095 13.3791 6.13208C13.3791 2.74528 10.3842 0 6.68954 0C2.99486 0 0 2.74528 0 6.13208C0 9.51887 2.99486 12.2642 6.68954 12.2642C8.34649 12.2642 9.86964 11.7076 11.0429 10.783L11.3208 11.0472V11.7925L16.4666 16.5L18 15.0943L12.8645 10.3774ZM6.68954 10.3774C4.12693 10.3774 2.05832 8.48114 2.05832 6.13208C2.05832 3.78302 4.12693 1.88679 6.68954 1.88679C9.25215 1.88679 11.3208 3.78302 11.3208 6.13208C11.3208 8.48114 9.25215 10.3774 6.68954 10.3774Z" fill="black" fill-opacity="0.6"/>
</svg>
